HIERARCHY
ROOT joint_Root
{
	OFFSET 0.0 0.0 0.0
	CHANNELS 6 Xposition Yposition Zposition Zrotation Xrotation Yrotation 
	JOINT Hips
	{
		OFFSET -17.1583 93.1646 452.98
		CHANNELS 6 Xposition Yposition Zposition Zrotation Xrotation Yrotation 
		JOINT Spine
		{
			OFFSET 15.7357 0.0 0.0
			CHANNELS 6 Xposition Yposition Zposition Zrotation Xrotation Yrotation 
			JOINT Chest
			{
				OFFSET 8.98455 -0.406207 0.0
				CHANNELS 6 Xposition Yposition Zposition Zrotation Xrotation Yrotation 
				JOINT Neck
				{
					OFFSET 16.3773 0.0 0.0
					CHANNELS 6 Xposition Yposition Zposition Zrotation Xrotation Yrotation 
					JOINT Head
					{
						OFFSET 6.45672 0.0 0.0
						CHANNELS 6 Xposition Yposition Zposition Zrotation Xrotation Yrotation 
						End Site
						{
							OFFSET 0.0 0.0 0.0
						}
					}
				}
				JOINT Shoulder_L
				{
					OFFSET 12.9942 -0.242716 4.98039
					CHANNELS 6 Xposition Yposition Zposition Zrotation Xrotation Yrotation 
					JOINT UpperArm_L
					{
						OFFSET 5.34809 0.0 0.0
						CHANNELS 6 Xposition Yposition Zposition Zrotation Xrotation Yrotation 
						JOINT LowerArm_L
						{
							OFFSET 24.3286 1.87007e-05 0.0
							CHANNELS 6 Xposition Yposition Zposition Zrotation Xrotation Yrotation 
							JOINT Hand_L
							{
								OFFSET 22.2916 0.0 0.0
								CHANNELS 6 Xposition Yposition Zposition Zrotation Xrotation Yrotation 
								End Site
								{
									OFFSET 0.0 0.0 0.0
								}
							}
						}
					}
				}
				JOINT Shoulder_R
				{
					OFFSET 12.9945 -0.242716 -4.98039
					CHANNELS 6 Xposition Yposition Zposition Zrotation Xrotation Yrotation 
					JOINT UpperArm_R
					{
						OFFSET -5.34813 0.0 0.0
						CHANNELS 6 Xposition Yposition Zposition Zrotation Xrotation Yrotation 
						JOINT LowerArm_R
						{
							OFFSET -24.3289 0.000322201 0.0
							CHANNELS 6 Xposition Yposition Zposition Zrotation Xrotation Yrotation 
							JOINT Hand_R
							{
								OFFSET -22.2915 -0.000108084 0.0
								CHANNELS 6 Xposition Yposition Zposition Zrotation Xrotation Yrotation 
								End Site
								{
									OFFSET 0.0 0.0 0.0
								}
							}
						}
					}
				}
			}
		}
		JOINT UpperLeg_L
		{
			OFFSET -2.19248 -6.46944 0.0
			CHANNELS 6 Xposition Yposition Zposition Zrotation Xrotation Yrotation 
			JOINT LowerLeg_L
			{
				OFFSET 39.0811 0.0 -1.23785e-05
				CHANNELS 6 Xposition Yposition Zposition Zrotation Xrotation Yrotation 
				JOINT Foot_L
				{
					OFFSET 40.9854 0.0 -1.26872e-05
					CHANNELS 6 Xposition Yposition Zposition Zrotation Xrotation Yrotation 
					JOINT Toes_L
					{
						OFFSET 11.7543 0.0 0.0
						CHANNELS 6 Xposition Yposition Zposition Zrotation Xrotation Yrotation 
						End Site
						{
							OFFSET 0.0 0.0 0.0
						}
					}
				}
			}
		}
		JOINT UpperLeg_R
		{
			OFFSET -2.19251 6.46944 0.0
			CHANNELS 6 Xposition Yposition Zposition Zrotation Xrotation Yrotation 
			JOINT LowerLeg_R
			{
				OFFSET -39.0811 -0.00228153 -0.0401928
				CHANNELS 6 Xposition Yposition Zposition Zrotation Xrotation Yrotation 
				JOINT Foot_R
				{
					OFFSET -40.9854 0.0 0.0
					CHANNELS 6 Xposition Yposition Zposition Zrotation Xrotation Yrotation 
					JOINT Toes_R
					{
						OFFSET -11.7543 0.0 0.0
						CHANNELS 6 Xposition Yposition Zposition Zrotation Xrotation Yrotation 
						End Site
						{
							OFFSET 0.0 0.0 0.0
						}
					}
				}
			}
		}
	}
}
MOTION
Frames:	4
Frame Time:	0.0333333
0.000000 0.000000 0.000000 0.000000 0.000000 -0.000000 -0.894619 93.462800 -0.478624 87.553200 6.213210 -1.465230 15.735700 0.000005 -0.000001 77.284600 85.704400 -84.127000 8.984550 -0.406207 -0.000000 0.564384 -1.462150 -13.667400 16.377300 -0.000001 -0.000001 -0.022808 -0.688106 -10.531600 6.456720 -0.000001 -0.000000 -20.752700 1.966530 -12.382800 12.994200 -0.242716 4.980390 -92.620800 6.950450 -69.280500 5.348090 -0.000007 -0.000001 -58.407800 -15.291700 1.801280 24.328600 0.000019 0.000005 12.780100 24.888200 -28.323700 22.291600 -0.000001 0.000005 1.926950 4.953570 8.291670 12.994500 -0.242716 -4.980390 92.559000 -4.470940 -60.173200 -5.348130 -0.000001 -0.000004 -36.777400 -59.259300 -64.443800 -24.328900 0.000322 -0.000009 0.000739 -25.444400 -0.000143 -22.291500 -0.000108 -0.000004 24.139600 5.316410 -0.426821 -2.192480 -6.469440 -0.000000 -173.269000 -11.031900 -4.454090 39.081100 -0.000007 -0.000012 -0.031711 0.121602 14.615500 40.985400 -0.000006 -0.000013 -0.164457 18.433400 -67.505700 11.754300 -0.000000 0.000003 -0.002843 0.206439 -8.200280 -2.192510 6.469440 -0.000001 177.662000 16.061300 -178.021000 -39.081100 -0.002282 -0.040193 0.001933 0.013361 6.034040 -40.985400 0.000008 0.000006 -10.043200 9.164870 -62.473300 -11.754300 -0.000006 -0.000006 -0.009592 0.268230 -5.676740
0.000000 0.000000 0.000000 0.000000 0.000000 -0.000000 -0.834244 93.458600 -0.410642 87.533300 6.376360 -1.386180 15.735700 0.000005 -0.000001 77.201400 85.724300 -84.083900 8.984550 -0.406207 -0.000000 0.522879 -1.460540 -13.748400 16.377300 -0.000001 -0.000001 0.081237 -0.486679 -10.492800 6.456720 -0.000001 -0.000000 -20.139300 2.118740 -12.185400 12.994200 -0.242716 4.980390 -92.666500 7.005480 -69.100100 5.348090 -0.000007 -0.000001 -58.417400 -14.990700 2.319610 24.328600 0.000019 0.000005 12.657900 25.482000 -27.565400 22.291600 -0.000001 0.000005 1.594450 4.948370 8.398690 12.994500 -0.242716 -4.980390 92.362300 -4.130580 -60.199600 -5.348130 -0.000001 -0.000004 -47.166300 -59.884700 -69.920900 -24.328900 0.000322 -0.000009 -0.001995 -31.552800 -0.000183 -22.291500 -0.000108 -0.000004 29.406100 5.078080 5.492860 -2.192480 -6.469440 -0.000000 -173.260000 -10.819800 -4.380050 39.081100 -0.000007 -0.000012 -0.031778 0.121421 14.666200 40.985400 -0.000006 -0.000013 -0.117352 18.412500 -67.579300 11.754300 -0.000000 0.000003 -0.002902 0.207119 -8.172580 -2.192510 6.469440 -0.000001 177.609000 16.199600 -177.912000 -39.081100 -0.002282 -0.040193 0.001499 0.017202 6.124860 -40.985400 0.000008 0.000006 -9.965610 9.178700 -62.538900 -11.754300 -0.000006 -0.000006 -0.009334 0.266260 -5.757270
0.000000 0.000000 0.000000 0.000000 0.000000 -0.000000 -0.745894 93.434900 -0.310635 87.494900 6.382440 -1.299770 15.735700 0.000005 -0.000001 77.515900 85.797200 -84.347700 8.984550 -0.406207 -0.000000 0.395618 -1.378820 -13.649200 16.377300 -0.000001 -0.000001 0.332306 -0.267304 -10.446300 6.456720 -0.000001 -0.000000 -19.426200 2.204210 -11.965000 12.994200 -0.242716 4.980390 -92.705400 7.042120 -68.922000 5.348090 -0.000007 -0.000001 -58.518200 -14.601000 2.902740 24.328600 0.000019 0.000005 12.442500 26.000800 -26.716500 22.291600 -0.000001 0.000005 1.211130 4.953120 8.300900 12.994500 -0.242716 -4.980390 92.121900 -3.763920 -60.558800 -5.348130 -0.000001 -0.000004 -57.321200 -61.306200 -76.254300 -24.328900 0.000322 -0.000009 -0.000499 -44.628400 -0.000291 -22.291500 -0.000108 -0.000004 37.716600 4.980470 7.748780 -2.192480 -6.469440 -0.000000 -173.266000 -10.630900 -4.360030 39.081100 -0.000007 -0.000012 -0.031147 0.116841 14.926300 40.985400 -0.000006 -0.000013 -0.037289 18.166000 -67.745000 11.754300 -0.000000 0.000003 -0.003143 0.209838 -8.061920 -2.192510 6.469440 -0.000001 177.523000 16.351400 -177.804000 -39.081100 -0.002282 -0.040193 0.001164 0.019950 6.239200 -40.985400 0.000008 0.000006 -10.095200 9.369490 -62.582900 -11.754300 -0.000006 -0.000006 -0.009750 0.269429 -5.627710
0.000000 0.000000 0.000000 0.000000 0.000000 -0.000000 -0.655475 93.416400 -0.211834 87.506700 6.335820 -1.162410 15.735700 0.000005 -0.000001 77.760100 85.852200 -84.481900 8.984550 -0.406207 -0.000000 0.299205 -1.321870 -13.430800 16.377300 -0.000001 -0.000001 0.539257 -0.064885 -10.273900 6.456720 -0.000001 -0.000000 -18.686900 2.372600 -11.839200 12.994200 -0.242716 4.980390 -92.683600 6.937010 -68.789800 5.348090 -0.000007 -0.000001 -58.881100 -14.535700 3.479750 24.328600 0.000019 0.000005 12.322300 26.564600 -26.033600 22.291600 -0.000001 0.000005 0.634624 4.947750 8.411240 12.994500 -0.242716 -4.980390 91.997000 -3.590580 -60.892600 -5.348130 -0.000001 -0.000004 -66.515800 -62.713600 -83.473500 -24.328900 0.000322 -0.000009 -0.000275 -61.071600 -0.000533 -22.291500 -0.000108 -0.000004 45.876600 5.033040 6.637100 -2.192480 -6.469440 -0.000000 -173.312000 -10.376600 -4.193220 39.081100 -0.000007 -0.000012 -0.029106 0.108383 15.031700 40.985400 -0.000006 -0.000013 0.024635 17.924900 -67.807500 11.754300 -0.000000 0.000003 -0.002916 0.207277 -8.166180 -2.192510 6.469440 -0.000001 177.386000 16.412600 -177.636000 -39.081100 -0.002282 -0.040193 0.000719 0.023628 6.341520 -40.985400 0.000008 0.000006 -10.087300 9.464880 -62.650200 -11.754300 -0.000006 -0.000006 -0.009775 0.269613 -5.620170
